<svg width="36.000000" height="36.000000" viewBox="0 0 36 36" fill="none" xmlns="http://www.w3.org/2000/svg" xmlns:xlink="http://www.w3.org/1999/xlink">
	<desc>
			Created with Pixso.
	</desc>
	<defs/>
	<path id="back" d="M0 18C0 8.0589 8.05884 0 18 0C27.9412 0 36 8.0589 36 18C36 27.9411 27.9412 36 18 36C8.05884 36 0 27.9411 0 18Z" fill="#3B5998" fill-opacity="1.000000" fill-rule="evenodd"/>
	<path id="Shape" d="M19.8762 28.5836L19.8762 18.7906L22.5796 18.7906L22.9377 15.416L19.8762 15.416L19.8809 13.7269C19.8809 12.8467 19.9644 12.3751 21.2285 12.3751L22.9187 12.3751L22.9187 9L20.2148 9C16.9673 9 15.8245 10.6371 15.8245 13.3902L15.8245 15.4163L13.8 15.4163L13.8 18.791L15.8245 18.791L15.8245 28.5836L19.8762 28.5836Z" fill="#FFFFFF" fill-opacity="1.000000" fill-rule="evenodd"/>
</svg>
