<svg width="190.000000" height="46.000000" viewBox="0 0 190 46" fill="none" xmlns="http://www.w3.org/2000/svg" xmlns:xlink="http://www.w3.org/1999/xlink">
	<desc>
			Created with Pixso.
	</desc>
	<defs/>
	<path id="Товаров: 3 6 540 ₽" d="M136.6 17.955C138.415 17.955 140.02 16.725 140.02 14.895C140.02 12.81 138.055 12.015 136.3 11.895L139.855 7.83L139.855 7.275L133.285 7.275L133.285 8.01L138.79 8.01L135.175 12.18L135.37 12.615L135.94 12.615C137.83 12.615 139.21 13.425 139.21 14.895C139.21 16.29 138.055 17.25 136.615 17.25C135.235 17.25 134.185 16.635 133.345 15.57L132.745 16.065C133.6 17.175 134.89 17.955 136.6 17.955ZM64.085 36.955C66.365 36.955 68.09 35.47 68.09 33.325C68.09 31.105 66.485 29.95 64.4 29.95C63.365 29.95 62.75 30.28 62.225 30.625C62.375 29.245 63.035 28.195 64.34 28.195C65.24 28.195 65.795 28.51 66.485 29.035L67.7 27.25C66.77 26.515 65.84 26.095 64.415 26.095C61.28 26.095 59.81 28.585 59.81 31.825C59.81 33.94 60.29 35.065 61.055 35.83C61.79 36.565 62.72 36.955 64.085 36.955ZM63.995 34.975C62.855 34.975 62.165 34.3 62.165 33.415C62.165 32.5 62.825 31.87 63.965 31.87C65.105 31.87 65.795 32.515 65.795 33.4C65.795 34.33 65.135 34.975 63.995 34.975ZM78.0037 36.955C80.4187 36.955 81.9937 35.545 81.9937 33.325C81.9937 30.925 80.3587 29.935 78.3187 29.935C77.7337 29.935 77.3587 30.01 76.9387 30.115L77.0587 28.3L81.5287 28.3L81.5287 26.275L75.0787 26.275L74.7787 31.45L76.1137 32.335C76.6087 32.125 77.2087 31.945 77.8687 31.945C78.9637 31.945 79.7287 32.47 79.7287 33.37C79.7287 34.33 79.0537 34.855 77.9737 34.855C77.0437 34.855 76.2637 34.435 75.4687 33.715L74.0737 35.38C75.0937 36.355 76.3237 36.955 78.0037 36.955ZM88.847 36.775L91.052 36.775L91.052 34.51L92.462 34.51L92.462 32.635L91.052 32.635L91.052 26.2L89.102 26.2L83.3419 32.875L83.7169 34.51L88.847 34.51L88.847 36.775ZM86.057 32.635L88.847 29.365L88.847 32.635L86.057 32.635ZM98.6787 36.955C101.484 36.955 103.359 34.57 103.359 31.525C103.359 28.45 101.484 26.095 98.7088 26.095C95.9187 26.095 94.0287 28.48 94.0287 31.525C94.0287 34.6 95.8737 36.955 98.6787 36.955ZM98.7088 34.87C97.3138 34.87 96.3988 33.445 96.3988 31.525C96.3988 29.575 97.2988 28.18 98.6787 28.18C100.059 28.18 100.989 29.62 100.989 31.525C100.989 33.46 100.104 34.87 98.7088 34.87ZM114.671 32.9737L109.061 32.9737L109.061 31.2599L114.62 31.2599C115.074 31.2599 115.436 31.1891 115.704 31.0475C115.978 30.9059 116.175 30.7105 116.297 30.4615C116.419 30.2076 116.48 29.9195 116.48 29.5973C116.48 29.2799 116.415 28.9894 116.283 28.7257C116.156 28.4571 115.958 28.2423 115.689 28.0812C115.426 27.9151 115.089 27.8321 114.679 27.8321L112.738 27.8321L112.738 36.775L110.541 36.775L110.541 26.1109L114.671 26.1109C115.511 26.1109 116.229 26.2599 116.825 26.5577C117.425 26.8556 117.887 27.2657 118.209 27.7882C118.531 28.3106 118.692 28.9088 118.692 29.5826C118.692 30.2906 118.526 30.8985 118.194 31.4063C117.867 31.9142 117.403 32.3023 116.803 32.5709C116.207 32.8395 115.497 32.9737 114.671 32.9737ZM115.074 33.5743L115.074 35.2882L109.061 35.2882L109.061 33.5743L115.074 33.5743Z" fill="#0E2149" fill-opacity="1.000000" fill-rule="evenodd"/>
	<path id="Товаров: 3 6 540 ₽" d="M63.47 17.775L64.25 17.775L64.25 7.995L67.91 7.995L67.91 7.275L59.81 7.275L59.81 7.995L63.47 7.995L63.47 17.775ZM73.5116 17.955C75.7916 17.955 77.4566 16.095 77.4566 13.95C77.4566 11.775 75.8066 9.945 73.5416 9.945C71.2616 9.945 69.5966 11.805 69.5966 13.95C69.5966 16.125 71.2466 17.955 73.5116 17.955ZM73.5416 17.265C71.7716 17.265 70.3916 15.795 70.3916 13.95C70.3916 12.12 71.7866 10.635 73.5116 10.635C75.2366 10.635 76.6616 12.105 76.6616 13.95C76.6616 15.78 75.2366 17.265 73.5416 17.265ZM79.7163 17.775L83.3763 17.775C85.0263 17.775 86.1213 16.965 86.1213 15.69C86.1213 14.61 85.3113 14.025 84.3963 13.785C85.0113 13.53 85.6863 13.065 85.6863 12.03C85.6863 10.86 84.6963 10.125 83.2113 10.125L79.7163 10.125L79.7163 17.775ZM80.4513 17.115L80.4513 14.16L83.1063 14.16C84.5763 14.16 85.3563 14.7 85.3563 15.585C85.3563 16.53 84.5613 17.115 83.2863 17.115L80.4513 17.115ZM80.4513 13.545L80.4513 10.785L83.1513 10.785C84.3063 10.785 84.9363 11.31 84.9363 12.075C84.9363 13.035 84.1713 13.545 83.1063 13.545L80.4513 13.545ZM90.7425 17.955C92.1975 17.955 93.1425 17.235 93.6675 16.5L93.6675 17.775L94.3875 17.775L94.3875 13.005C94.3875 12.06 94.1175 11.355 93.6075 10.845C93.0525 10.29 92.2275 10.005 91.1925 10.005C90.1425 10.005 89.3175 10.275 88.4775 10.665L88.7475 11.31C89.4525 10.95 90.2175 10.695 91.1475 10.695C92.7225 10.695 93.6675 11.49 93.6675 13.035L93.6675 13.365C92.9325 13.17 92.1975 13.035 91.1325 13.035C89.1525 13.035 87.7875 13.935 87.7875 15.525C87.7875 17.145 89.1675 17.955 90.7425 17.955ZM90.7875 17.265C89.4675 17.265 88.5825 16.62 88.5825 15.51C88.5825 14.415 89.4675 13.695 91.0875 13.695C92.1825 13.695 93.0375 13.875 93.6825 14.04L93.6825 14.91C93.6825 16.305 92.3475 17.265 90.7875 17.265ZM97.0307 20.175L97.7657 20.175L97.7657 16.125C98.3957 17.085 99.3857 17.955 100.916 17.955C102.761 17.955 104.636 16.44 104.636 13.95C104.636 11.43 102.761 9.945 100.916 9.945C99.4007 9.945 98.4257 10.83 97.7657 11.835L97.7657 10.125L97.0307 10.125L97.0307 20.175ZM100.841 17.25C99.2507 17.25 97.7207 15.93 97.7207 13.965C97.7207 11.985 99.2507 10.65 100.841 10.65C102.446 10.65 103.841 11.94 103.841 13.95C103.841 16.035 102.506 17.25 100.841 17.25ZM110.323 17.955C112.603 17.955 114.268 16.095 114.268 13.95C114.268 11.775 112.618 9.945 110.353 9.945C108.073 9.945 106.408 11.805 106.408 13.95C106.408 16.125 108.058 17.955 110.323 17.955ZM110.353 17.265C108.583 17.265 107.203 15.795 107.203 13.95C107.203 12.12 108.598 10.635 110.323 10.635C112.048 10.635 113.473 12.105 113.473 13.95C113.473 15.78 112.048 17.265 110.353 17.265ZM116.528 17.775L120.188 17.775C121.838 17.775 122.933 16.965 122.933 15.69C122.933 14.61 122.123 14.025 121.208 13.785C121.823 13.53 122.498 13.065 122.498 12.03C122.498 10.86 121.508 10.125 120.023 10.125L116.528 10.125L116.528 17.775ZM117.263 17.115L117.263 14.16L119.918 14.16C121.388 14.16 122.168 14.7 122.168 15.585C122.168 16.53 121.373 17.115 120.098 17.115L117.263 17.115ZM117.263 13.545L117.263 10.785L119.963 10.785C121.118 10.785 121.748 11.31 121.748 12.075C121.748 13.035 120.983 13.545 119.918 13.545L117.263 13.545ZM125.139 17.775L126.129 17.775L126.129 16.5L125.139 16.5L125.139 17.775ZM125.139 11.4L126.129 11.4L126.129 10.125L125.139 10.125L125.139 11.4Z" fill="#717171" fill-opacity="1.000000" fill-rule="evenodd"/>
	<circle id="Ellipse 4" cx="23.000000" cy="23.000000" r="23.000000" fill="#EFF2F4" fill-opacity="1.000000"/>
	<path id="Vector" d="M23.5 12L16.1843 19.5093L12 19.5093L12 24.5684L13.0267 24.5684L15.3112 32.3938L15.4911 33L31.5089 33L31.6888 32.3938L33.9733 24.5684L35 24.5684L35 19.5093L30.8157 19.5093L23.5 12ZM23.5 14.3979L28.4803 19.5093L18.5205 19.5093L23.5 14.3979ZM13.6428 21.1956L33.3572 21.1956L33.3572 22.8818L32.7411 22.8818L32.5612 23.4883L30.2767 31.3137L16.7233 31.3137L14.4388 23.4883L14.2589 22.8818L13.6428 22.8818L13.6428 21.1956ZM19.3928 23.7251L19.3928 29.6274L21.0358 29.6274L21.0358 23.7251L19.3928 23.7251ZM22.6786 23.7251L22.6786 29.6274L24.3214 29.6274L24.3214 23.7251L22.6786 23.7251ZM25.9642 23.7251L25.9642 29.6274L27.6072 29.6274L27.6072 23.7251L25.9642 23.7251Z" fill="#0E2149" fill-opacity="1.000000" fill-rule="nonzero"/>
</svg>
