<svg width="215.000000" height="54.000000" viewBox="0 0 215 54" fill="none" xmlns="http://www.w3.org/2000/svg" xmlns:xlink="http://www.w3.org/1999/xlink">
	<desc>
			Created with Pixso.
	</desc>
	<defs>
		<clipPath id="clip1017_757">
			<rect id="Лого" width="215.000000" height="54.000000" fill="white" fill-opacity="0"/>
		</clipPath>
		<linearGradient id="paint_linear_1017_766_0" x1="-0.294825" y1="27.189846" x2="54.139629" y2="27.189846" gradientUnits="userSpaceOnUse">
			<stop stop-color="#5B1D14"/>
			<stop offset="0.148800" stop-color="#924E20"/>
			<stop offset="0.359100" stop-color="#D09F51"/>
			<stop offset="0.720200" stop-color="#DCBA93"/>
			<stop offset="0.859100" stop-color="#BE864A"/>
			<stop offset="0.968300" stop-color="#9F5805"/>
		</linearGradient>
	</defs>
	<rect id="Лого" width="215.000000" height="54.000000" fill="#FFFFFF" fill-opacity="0"/>
	<g clip-path="url(#clip1017_757)">
		<path id="Vector" d="M80.8135 24.1057C80.8135 27.7568 77.8547 30.1909 74.0259 30.1909L71.5894 30.1909L71.5894 35.5808L67.0642 35.5808L67.0642 18.0205L74.0259 18.0205C77.8547 18.0205 80.8135 20.2808 80.8135 24.1057ZM71.5894 22.0193L71.5894 26.1921L74.0259 26.1921C75.2441 26.1921 76.1145 25.3228 76.1145 24.1057C76.1145 22.8887 75.2441 22.0193 74.0259 22.0193L71.5894 22.0193Z" fill="#0E2149" fill-opacity="1.000000" fill-rule="nonzero"/>
		<path id="Vector" d="M99.958 22.1931L92.3003 22.1931L92.3003 24.6274L97.8696 24.6274L97.8696 28.4524L92.3003 28.4524L92.3003 31.408L100.306 31.408L100.306 35.5808L87.7751 35.5808L87.7751 18.0205L99.958 18.0205L99.958 22.1931Z" fill="#0E2149" fill-opacity="1.000000" fill-rule="nonzero"/>
		<path id="Vector" d="M124.15 22.3669L120.669 24.801C119.625 23.0625 118.232 21.8452 116.144 21.8452C113.359 21.8452 111.271 23.7578 111.271 26.7136C111.271 29.6692 113.185 31.5818 116.144 31.5818C118.232 31.5818 119.625 30.5386 120.669 28.626L124.15 31.0601C122.583 34.0159 119.625 35.7544 116.144 35.7544C110.923 35.7544 106.746 31.7556 106.746 26.7136C106.746 21.4976 110.923 17.6726 116.318 17.6726C119.625 17.6726 122.583 19.4111 124.15 22.3669Z" fill="#0E2149" fill-opacity="1.000000" fill-rule="nonzero"/>
		<path id="Vector" d="M146.949 35.5808L142.424 35.5808L142.424 28.6262L135.985 28.6262L135.985 35.5808L131.46 35.5808L131.46 18.0205L135.985 18.0205L135.985 24.4534L142.424 24.4534L142.424 18.0205L146.949 18.0205L146.949 35.5808Z" fill="#0E2149" fill-opacity="1.000000" fill-rule="nonzero"/>
		<path id="Vector" d="M173.404 26.8867C173.404 32.1025 169.227 35.9275 163.832 35.9275C158.611 35.9275 154.434 32.1025 154.434 26.8867C154.434 21.6709 158.611 17.8457 163.832 17.8457C169.227 17.6719 173.404 21.6709 173.404 26.8867ZM159.133 26.8867C159.133 29.8423 161.047 31.7549 164.006 31.7549C166.791 31.7549 168.879 29.8423 168.879 26.8867C168.879 23.9309 166.791 22.0186 164.006 22.0186C161.047 21.8447 159.133 23.9309 159.133 26.8867Z" fill="#0E2149" fill-opacity="1.000000" fill-rule="nonzero"/>
		<path id="Vector" d="M194.463 22.1931L189.068 22.1931L189.068 35.5808L184.542 35.5808L184.542 22.1931L179.321 22.1931L179.321 18.0205L194.463 18.0205L194.463 22.1931Z" fill="#0E2149" fill-opacity="1.000000" fill-rule="nonzero"/>
		<path id="Vector" d="M209.431 34.1897L203.165 34.1897L202.469 35.5806L197.596 35.5806L205.602 17.6726L206.994 17.6726L215 35.5806L210.127 35.5806L209.431 34.1897ZM206.298 26.3657L204.731 30.3647L207.864 30.3647L206.298 26.3657Z" fill="#0E2149" fill-opacity="1.000000" fill-rule="nonzero"/>
		<path id="Vector" d="M31.3276 2.78174L22.6255 2.78174L19.6667 0L16.8821 2.78174L12.8792 2.78174L12.8792 6.78076L6.7876 12.866L2.78467 12.866L2.78467 16.8647L0 19.6465L2.78467 22.4285L2.78467 31.1216L0 33.9033L2.78467 36.6853L2.78467 40.6841L6.7876 40.6841L12.8792 46.7693L12.8792 50.7681L16.8821 50.7681L19.6667 53.55L22.4514 50.7681L31.1536 50.7681L33.9382 53.55L36.7229 50.7681L40.7258 50.7681L40.7258 46.7693L46.8174 40.6841L50.8203 40.6841L50.8203 36.6853L53.605 33.9033L50.8203 31.1216L50.8203 22.4285L53.605 19.6465L50.8203 16.8647L50.8203 13.0398L46.8174 13.0398L41.074 6.95459L41.074 2.78174L37.071 2.78174L34.1123 0L31.3276 2.78174ZM32.3718 5.73755L34.1123 3.99878L35.8528 5.73755L38.2893 5.73755L38.2893 8.17163L46.1211 15.9954L48.5576 15.9954L48.5576 18.4294L50.2981 20.1682L48.5576 21.9067L48.5576 32.8601L50.2981 34.5989L48.5576 36.3374L48.5576 38.7715L46.1211 38.7715L38.2893 46.5955L38.2893 49.0295L35.8528 49.0295L34.1123 50.7681L32.3718 49.0295L21.4072 49.0295L19.6667 50.7681L17.9263 49.0295L15.4897 49.0295L15.4897 46.5955L7.65796 38.7715L5.22119 38.7715L5.22119 36.3374L3.48096 34.5989L5.22119 32.8601L5.22119 21.9067L3.48096 20.1682L5.22119 18.4294L5.22119 15.8215L7.65796 15.8215L15.4897 7.9978L15.4897 5.73755L17.9263 5.73755L19.6667 3.99878L21.4072 5.73755L32.3718 5.73755ZM21.4072 7.6499L21.4072 9.04102C21.4072 9.73633 21.4072 10.4319 21.2332 11.1272C21.2332 11.6489 21.0591 12.1704 20.885 12.5181C20.5369 13.3875 20.189 14.2568 19.8408 15.1262C19.6667 15.4739 19.3186 15.9954 19.1445 16.3433C18.2744 17.5603 17.2302 18.6035 16.012 19.4727C16.5339 20.342 16.8821 21.2114 17.0562 22.0806C18.7966 20.8635 20.363 19.2988 21.5813 17.5603C21.7554 17.2124 22.1033 16.6909 22.2773 16.3433C22.6255 15.4739 22.9736 14.6045 23.3215 13.7351C23.4956 13.2136 23.4956 12.866 23.6697 12.3442C23.8438 11.6489 23.8438 11.1272 24.0178 10.4319L29.7612 10.4319C29.7612 11.1272 29.9353 11.6489 30.1094 12.3442C30.9795 11.9966 31.8496 11.6489 32.72 11.301C32.5459 10.6057 32.5459 9.91016 32.5459 9.21484L32.5459 7.6499L21.4072 7.6499ZM35.8528 10.4319C35.3306 10.9534 34.8083 11.4751 34.2864 11.8228C33.9382 12.1704 33.416 12.3442 33.0679 12.5181C32.1978 13.0398 31.3276 13.3875 30.4573 13.5613C29.9353 13.7351 29.5872 13.7351 29.0649 13.9092C28.3689 14.083 27.6726 14.083 26.9766 14.083C26.2803 14.083 25.5842 14.083 24.7139 13.9092C24.366 14.7783 24.0178 15.6477 23.6697 16.5171C24.7139 16.6909 25.7583 16.8647 26.8025 16.8647C27.8467 16.8647 28.8909 16.6909 29.9353 16.5171C30.4573 16.3433 30.8054 16.3433 31.3276 16.1694C32.1978 15.8215 33.0679 15.4739 33.9382 15.1262C34.2864 14.9521 34.8083 14.6045 35.1565 14.4307C35.6787 14.083 36.2007 13.7351 36.7229 13.3875L40.8999 17.5603C40.5518 18.0818 40.0298 18.6035 39.8557 19.125C40.7258 19.6465 41.5959 19.9944 42.4663 20.1682C42.8145 19.6465 43.3364 19.125 43.8586 18.6035L44.9028 17.5603L37.071 9.73633L35.8528 10.4319ZM9.05029 17.2124L10.0945 18.2556C10.6165 18.7773 11.1387 19.2988 11.4868 19.8206C11.835 20.1682 12.0088 20.6897 12.1829 21.0376C12.7051 21.9067 13.0532 22.7761 13.2273 23.6455C13.4011 24.167 13.4011 24.5146 13.5752 25.0364C13.7493 25.7319 13.7493 26.4272 13.7493 27.1228C13.7493 27.8181 13.7493 28.5137 13.5752 29.3831C14.4456 29.7307 15.3157 30.0784 16.186 30.426C16.3599 29.3831 16.5339 28.3398 16.5339 27.2966C16.5339 26.2534 16.3599 25.2102 16.186 24.167C16.012 23.6455 16.012 23.2976 15.8379 22.7761C15.4897 21.9067 15.1416 21.0376 14.7935 20.1682C14.6196 19.8206 14.2715 19.2988 14.0974 18.9512C13.7493 18.4294 13.4011 17.908 13.0532 17.3865L17.2302 13.2136C17.7522 13.5613 18.2744 13.9092 18.7966 14.2568C19.3186 13.3875 19.6667 12.5181 19.8408 11.6489C19.3186 11.301 18.7966 10.7795 18.2744 10.2581L17.2302 9.21484L9.05029 17.2124ZM32.1978 17.3865C33.416 19.125 34.9824 20.6897 36.7229 21.9067C37.071 22.0806 37.593 22.4285 37.9412 22.6023C38.8113 22.95 39.6816 23.2976 40.5518 23.6455C41.074 23.8193 41.4221 23.8193 41.9441 23.9932C42.6404 24.167 43.1624 24.167 43.8586 24.3408L43.8586 30.0784C43.1624 30.0784 42.6404 30.2522 41.9441 30.426C42.1182 31.2954 42.6404 32.1648 42.9883 33.0342C43.6846 32.8601 44.3806 32.8601 45.0769 32.8601L46.4692 32.8601L46.4692 21.7329L45.0769 21.7329C44.3806 21.7329 43.6846 21.7329 42.9883 21.5591C42.4663 21.5591 41.9441 21.3853 41.5959 21.2114C40.7258 21.0376 39.8557 20.5159 38.9854 20.1682C38.6375 19.9944 38.1152 19.6465 37.7671 19.4727C36.5488 18.6035 35.5046 17.5603 34.6343 16.3433C33.9382 16.6909 33.0679 17.0386 32.1978 17.3865ZM22.7996 20.1682L22.7996 34.2512L25.5842 34.2512L25.5842 30.0784L27.6726 30.0784C30.4573 30.0784 32.5459 27.8181 32.5459 25.2102C32.5459 22.4285 30.2832 20.342 27.6726 20.342L22.7996 20.342L22.7996 20.1682ZM25.5842 22.95L27.6726 22.95C28.8909 22.95 29.7612 23.8193 29.7612 25.0364C29.7612 26.2534 28.8909 27.1228 27.6726 27.1228L25.5842 27.1228L25.5842 22.95ZM8.70215 21.5591L7.30981 21.5591L7.30981 32.6863L8.70215 32.6863C9.39819 32.6863 10.0945 32.6863 10.7905 32.8601C11.3127 32.8601 11.835 33.0342 12.1829 33.208C13.0532 33.5557 13.9233 33.9033 14.7935 34.2512C15.1416 34.425 15.6638 34.7727 16.012 34.9465C17.2302 35.8159 18.2744 36.8591 19.1445 38.0762C20.0149 37.7285 20.885 37.2068 21.7554 37.033C20.5369 35.2944 18.9707 33.7295 17.2302 32.5125C16.8821 32.3386 16.3599 31.991 16.012 31.8171C15.1416 31.4692 14.2715 31.1216 13.4011 30.7739C12.8792 30.6001 12.531 30.6001 12.0088 30.426C11.3127 30.2522 10.7905 30.2522 10.0945 30.0784L10.0945 24.3408C10.7905 24.3408 11.3127 24.167 12.0088 23.9932C11.6609 23.1238 11.3127 22.2546 10.9646 21.3853C10.0945 21.5591 9.39819 21.5591 8.70215 21.5591ZM37.593 30.426C37.7671 30.9478 37.7671 31.2954 37.9412 31.8171C38.2893 32.6863 38.6375 33.5557 38.9854 34.425C39.1594 34.7727 39.5076 35.2944 39.6816 35.6421C40.0298 36.1636 40.3777 36.6853 40.7258 37.2068L36.5488 41.3796C36.0266 41.0317 35.5046 40.5103 34.9824 40.3364C34.4604 41.2056 34.1123 42.075 33.9382 42.9443C34.4604 43.292 34.9824 43.8137 35.5046 44.3352L36.5488 45.3784L44.3806 37.5544L43.3364 36.5115C42.8145 35.9897 42.2922 35.4683 41.9441 34.9465C41.5959 34.5989 41.4221 34.0774 41.248 33.7295C40.7258 32.8601 40.3777 31.991 40.2036 31.1216C40.0298 30.6001 40.0298 30.2522 39.8557 29.7307C39.6816 28.3398 39.6816 26.7749 39.8557 25.384C38.9854 25.0364 38.1152 24.6887 37.2451 24.3408C37.2451 26.0796 37.2451 28.3398 37.593 30.426ZM32.1978 37.033C32.0237 37.3806 31.6758 37.9023 31.5017 38.25C31.1536 39.1194 30.8054 39.9885 30.4573 40.8579C30.2832 41.2056 30.2832 41.7273 30.1094 42.075C29.9353 42.7705 29.9353 43.292 29.7612 43.9875L24.0178 43.9875C24.0178 43.292 23.8438 42.7705 23.6697 42.075C22.7996 42.4226 21.9292 42.7705 21.0591 43.1182C21.2332 43.8137 21.2332 44.509 21.2332 45.2046L21.2332 46.5955L32.3718 46.5955L32.3718 45.2046C32.3718 44.509 32.3718 43.8137 32.5459 43.1182C32.5459 42.5967 32.72 42.075 32.894 41.7273C33.2419 40.8579 33.5901 39.9885 33.9382 39.1194C34.1123 38.7715 34.4604 38.25 34.6343 37.9023C35.5046 36.6853 36.5488 35.6421 37.7671 34.7727C37.2451 33.9033 36.897 33.0342 36.7229 32.1648C34.9824 33.7295 33.416 35.2944 32.1978 37.033ZM10.0945 36.1636L9.05029 37.2068L16.8821 45.0308L17.9263 43.9875C18.4485 43.4658 18.9707 42.9443 19.4927 42.5967C19.8408 42.2488 20.363 42.075 20.7109 41.9011C21.5813 41.3796 22.4514 41.0317 23.3215 40.8579C23.8438 40.6841 24.1919 40.6841 24.7139 40.5103C25.4102 40.3364 26.1062 40.3364 26.9766 40.3364C27.6726 40.3364 28.3689 40.3364 29.0649 40.5103C29.4131 39.6409 29.7612 38.7715 30.1094 37.9023C29.0649 37.7285 28.0208 37.5544 26.9766 37.5544C25.9324 37.5544 24.8879 37.7285 23.8438 37.9023C23.3215 38.0762 22.9736 38.0762 22.4514 38.25C21.5813 38.5977 20.7109 38.9456 19.8408 39.2932C19.4927 39.467 18.9707 39.8147 18.6226 39.9885C18.1003 40.3364 17.5784 40.6841 17.0562 41.0317L12.8792 37.033C13.2273 36.5115 13.7493 35.9897 13.9233 35.4683C13.0532 34.9465 12.1829 34.5989 11.3127 34.425C11.1387 35.1204 10.6165 35.6421 10.0945 36.1636Z" fill="url(#paint_linear_1017_766_0)" fill-opacity="1.000000" fill-rule="evenodd"/>
	</g>
</svg>
