<svg width="23.000000" height="22.000000" viewBox="0 0 23 22" fill="none" xmlns="http://www.w3.org/2000/svg" xmlns:xlink="http://www.w3.org/1999/xlink">
	<desc>
			Created with Pixso.
	</desc>
	<defs/>
	<path id="Vector" d="M11.5 3.55151L13.6562 7.93579L14.0156 8.72144L14.7969 8.83936L19.6094 9.53857L16.1875 12.9172L15.6016 13.4907L15.7422 14.2764L16.5625 19.0928L12.2578 16.822L11.5 16.5L10.7734 16.885L6.46875 19.1243L7.25 14.3079L7.39062 13.5222L6.8125 12.9172L3.35938 9.49927L8.17188 8.80005L8.95312 8.68213L9.3125 7.89648L11.5 3.55151ZM11.5 0L7.94531 7.24438L0 8.39917L5.75 14.0408L4.39062 22L11.5 18.2444L18.6094 22L17.25 14.0408L23 8.40723L15.0547 7.24438L11.5 0Z" fill="#0E2149" fill-opacity="1.000000" fill-rule="nonzero"/>
</svg>
