<svg width="36.000000" height="36.000000" viewBox="0 0 36 36" fill="none" xmlns="http://www.w3.org/2000/svg" xmlns:xlink="http://www.w3.org/1999/xlink">
	<desc>
			Created with Pixso.
	</desc>
	<defs>
		<linearGradient id="paint_linear_1018_1600_0" x1="29.399998" y1="3.599854" x2="7.499992" y2="32.999855" gradientUnits="userSpaceOnUse">
			<stop stop-color="#9454D4"/>
			<stop offset="0.520833" stop-color="#E04380"/>
			<stop offset="1.000000" stop-color="#F89B4E"/>
		</linearGradient>
	</defs>
	<mask id="mask1018_1599" mask-type="alpha" maskUnits="userSpaceOnUse" x="0.000000" y="0.000000" width="36.000000" height="36.000000">
		<path id="back" d="M0 18C0 8.0589 8.05884 0 18 0C27.9412 0 36 8.0589 36 18C36 27.9411 27.9412 36 18 36C8.05884 36 0 27.9411 0 18Z" fill="#FFFFFF" fill-opacity="1.000000" fill-rule="evenodd"/>
	</mask>
	<g mask="url(#mask1018_1599)">
		<path id="back" d="M0 18C0 8.0589 8.05884 0 18 0C27.9412 0 36 8.0589 36 18C36 27.9411 27.9412 36 18 36C8.05884 36 0 27.9411 0 18Z" fill="url(#paint_linear_1018_1600_0)" fill-opacity="1.000000" fill-rule="evenodd"/>
	</g>
	<g mask="url(#mask1018_1599)">
		<path id="Shape" d="M14.0425 8.45789C15.0659 8.41132 15.3933 8.3999 17.9978 8.3999L18.0007 8.3999C20.6062 8.3999 20.9321 8.41132 21.9558 8.45789C22.9778 8.5047 23.6758 8.6665 24.2878 8.90393C24.9199 9.14893 25.4539 9.47693 25.9878 10.0109C26.522 10.5445 26.8499 11.0801 27.0959 11.7115C27.3318 12.322 27.4939 13.0195 27.542 14.0416C27.5879 15.0656 27.5999 15.3928 27.5999 18C27.5999 20.6072 27.5879 20.9337 27.542 21.9576C27.4939 22.9792 27.3318 23.6771 27.0959 24.2877C26.8499 24.9189 26.522 25.4545 25.9878 25.9881C25.4546 26.5221 24.9197 26.8509 24.2886 27.0961C23.6777 27.3335 22.9792 27.4953 21.9573 27.5421C20.9333 27.5887 20.6069 27.6001 17.9995 27.6001C15.3926 27.6001 15.0657 27.5887 14.0415 27.5421C13.0198 27.4953 12.322 27.3335 11.7112 27.0961C11.0801 26.8509 10.5444 26.5221 10.0112 25.9881C9.47729 25.4545 9.14941 24.9189 8.90381 24.2875C8.66675 23.6771 8.50488 22.9794 8.45801 21.9575C8.41162 20.9334 8.3999 20.6072 8.3999 18C8.3999 15.3928 8.41187 15.0654 8.45776 14.0414C8.50366 13.0198 8.66577 12.322 8.90381 11.7114C9.14966 11.0801 9.47778 10.5445 10.0117 10.0109C10.5454 9.47711 11.0808 9.14911 11.7124 8.90393C12.3228 8.6665 13.0203 8.5047 14.0425 8.45789ZM17.6807 10.1298L17.6809 10.1298C17.7837 10.1299 17.8901 10.1299 18.001 10.1299C20.5642 10.1299 20.8679 10.1391 21.8801 10.1851C22.8162 10.2279 23.3242 10.3843 23.6626 10.5157C24.1106 10.6898 24.4299 10.8977 24.7659 11.2338C25.1018 11.5698 25.3098 11.8898 25.4841 12.3378C25.6157 12.6758 25.7722 13.1838 25.8149 14.1198C25.8608 15.1318 25.8708 15.4358 25.8708 17.9978C25.8708 20.5598 25.8608 20.8638 25.8149 21.8759C25.772 22.8119 25.6157 23.3199 25.4841 23.6579C25.3103 24.1059 25.1018 24.4249 24.7659 24.7607C24.4297 25.0967 24.1108 25.3047 23.6626 25.4787C23.3247 25.6107 22.8162 25.7667 21.8801 25.8095C20.8682 25.8555 20.5642 25.8655 18.001 25.8655C15.4375 25.8655 15.1338 25.8555 14.1216 25.8095C13.1858 25.7663 12.6777 25.6099 12.3391 25.4785C11.8911 25.3045 11.571 25.0965 11.2351 24.7605C10.8992 24.4245 10.6912 24.1053 10.5166 23.657C10.3853 23.3191 10.2288 22.811 10.186 21.8751C10.1401 20.863 10.1309 20.559 10.1309 17.9954C10.1309 15.4318 10.1401 15.1294 10.186 14.1174C10.2288 13.1813 10.3853 12.6733 10.5166 12.335C10.6907 11.887 10.8992 11.567 11.2351 11.231C11.571 10.895 11.8911 10.687 12.3391 10.5125C12.6775 10.3806 13.1858 10.2245 14.1216 10.1815C15.0073 10.1415 15.3506 10.1295 17.1396 10.1275L17.1396 10.1299C17.3069 10.1296 17.4866 10.1298 17.6807 10.1298ZM21.9734 12.8755C21.9734 12.2394 22.4895 11.7239 23.1255 11.7239L23.1255 11.7236C23.7615 11.7236 24.2773 12.2396 24.2773 12.8755C24.2773 13.5116 23.7615 14.0276 23.1255 14.0276C22.4895 14.0276 21.9734 13.5116 21.9734 12.8755ZM18.0007 13.0699C15.2781 13.0701 13.0708 15.2775 13.0708 18C13.0708 20.7227 15.2783 22.9291 18.0007 22.9291C20.7234 22.9291 22.9302 20.7227 22.9302 18C22.9302 15.2774 20.7234 13.0699 18.0007 13.0699ZM21.2009 18C21.2009 16.2326 19.7681 14.8 18.001 14.8C16.2336 14.8 14.801 16.2326 14.801 18C14.801 19.7672 16.2336 21.2 18.001 21.2C19.7681 21.2 21.2009 19.7672 21.2009 18Z" clip-rule="evenodd" fill="#FFFFFF" fill-opacity="1.000000" fill-rule="evenodd"/>
	</g>
</svg>
