<svg width="18.707031" height="18.708008" viewBox="0 0 18.707 18.708" fill="none" xmlns="http://www.w3.org/2000/svg" xmlns:xlink="http://www.w3.org/1999/xlink">
	<desc>
			Created with Pixso.
	</desc>
	<defs/>
	<path id="Vector" d="M8 16C9.77502 15.9996 11.4988 15.4054 12.897 14.312L17.293 18.708L18.707 17.2939L14.311 12.8979C15.405 11.4996 15.9995 9.77539 16 8C16 3.58899 12.411 0 8 0C3.58899 0 0 3.58899 0 8C0 12.411 3.58899 16 8 16ZM8 2C11.309 2 14 4.69104 14 8C14 11.309 11.309 14 8 14C4.69104 14 2 11.309 2 8C2 4.69104 4.69104 2 8 2Z" fill="#FFFFFF" fill-opacity="1.000000" fill-rule="nonzero"/>
</svg>
