<svg width="181.790771" height="178.947998" viewBox="0 0 181.791 178.948" fill="none" xmlns="http://www.w3.org/2000/svg" xmlns:xlink="http://www.w3.org/1999/xlink">
	<desc>
			Created with Pixso.
	</desc>
	<defs>
		<linearGradient id="paint_linear_1017_1497_0" x1="128.182251" y1="12.016487" x2="58.831375" y2="179.084106" gradientUnits="userSpaceOnUse">
			<stop stop-color="#D79F43"/>
			<stop offset="1.000000" stop-color="#C26D30"/>
		</linearGradient>
	</defs>
	<path id="Vector" d="M104.064 9.5865L75.1575 9.5865L65.5217 0L56.5286 9.5865L43.0388 9.5865L43.0388 23.0076L22.4829 42.8197L8.99316 42.8197L8.99316 56.2408L0 65.1882L9.6355 74.7747L9.6355 103.534L0 112.482L9.6355 122.068L9.6355 135.489L23.1252 135.489L43.6812 155.94L43.6812 169.361L57.1709 169.361L66.8066 178.948L76.4421 169.361L105.349 169.361L114.984 178.948L124.62 169.361L138.11 169.361L138.11 155.94L158.666 135.489L172.155 135.489L172.155 122.068L181.791 112.482L172.155 102.895L172.155 74.1356L181.791 64.5491L172.155 54.9626L172.155 42.8197L158.666 42.8197L138.11 22.3685L138.11 9.5865L124.62 9.5865L113.057 0L104.064 9.5865ZM107.918 18.5339L113.057 12.782L118.839 18.5339L126.547 18.5339L126.547 26.2031L152.242 51.7671L160.593 51.7671L160.593 59.4363L166.374 65.1882L160.593 70.9401L160.593 107.369L166.374 113.121L160.593 118.233L160.593 125.903L152.884 125.903L127.189 151.467L127.189 159.136L119.481 159.136L113.7 164.888L107.918 159.775L71.3032 159.775L65.5217 165.527L60.3828 159.775L52.032 159.775L52.032 152.106L26.3372 126.542L18.6287 126.542L18.6287 118.873L12.8474 112.482L18.6287 106.73L18.6287 70.301L12.8474 65.1882L18.6287 59.4363L18.6287 51.7671L26.3372 51.7671L52.032 26.2031L52.032 18.5339L59.7405 18.5339L65.5217 12.782L71.3032 18.5339L107.918 18.5339ZM71.3032 24.9249L71.3032 29.3986C71.3032 31.955 71.3032 33.8723 70.6606 36.4287C70.6606 37.7069 70.0183 39.6242 69.376 40.9024C68.7336 44.0979 67.449 46.6543 66.1641 49.2107C65.5217 50.4889 64.2371 51.7671 63.5947 53.0453C61.0251 56.8799 57.1709 60.0754 53.3167 63.2709C54.6016 65.8273 55.8862 69.0228 57.1709 71.5792C62.9524 67.7446 68.0913 62.6318 71.9456 56.8799C72.5879 55.6017 73.8726 54.3235 74.5149 53.0453C75.7998 50.4889 77.0845 47.2934 77.7268 44.737C78.3691 43.4588 78.3691 41.5415 79.0115 40.2633C79.6541 38.346 79.6541 36.4287 79.6541 33.8723L98.925 33.8723C98.925 35.7896 99.5674 37.7069 99.5674 40.2633C102.779 39.6242 105.349 38.346 107.918 36.4287C107.276 33.8723 107.276 31.955 107.276 29.3986L107.276 24.9249L71.3032 24.9249ZM118.839 33.8723C117.554 35.7896 115.627 37.0678 113.7 38.346C112.415 38.9851 111.13 40.2633 109.845 40.9024C107.276 42.1806 104.706 43.4588 101.495 44.0979C100.21 44.737 98.2827 44.737 96.998 45.3761C94.4285 46.0152 92.5015 46.0152 89.9319 46.0152C87.3623 46.0152 84.793 46.0152 82.8657 45.3761C82.2234 48.5716 80.9387 51.128 79.6541 53.6844C82.8657 54.3235 86.72 54.9626 89.9319 54.9626C93.7861 54.9626 96.998 54.3235 100.21 53.6844C101.495 53.0453 103.422 53.0453 104.706 52.4062C107.276 51.7671 110.488 50.4889 113.057 49.2107C114.342 48.5716 115.627 47.9325 116.911 46.6543C118.839 46.0152 120.766 44.737 122.051 43.4588L135.54 56.8799C134.255 58.7972 132.971 60.0754 131.686 61.9927C134.255 63.2709 137.467 64.5491 140.037 65.1882C141.322 63.2709 142.606 61.3536 144.533 60.0754L147.745 56.8799L122.051 31.3159L118.839 33.8723ZM30.8337 56.8799L34.0457 60.0754C35.9727 61.3536 37.2576 63.2709 38.5422 65.1882C39.1846 66.4664 40.4692 67.7446 41.1118 69.0228C42.3965 71.5792 43.6812 74.1356 44.3235 77.3311C44.9658 78.6093 44.9658 80.5266 45.6084 81.8048C46.2507 84.3612 46.2507 86.2785 46.2507 88.8349C46.2507 91.3913 46.2507 93.9477 45.6084 95.865C48.8201 96.5041 51.3896 97.7823 53.9592 99.0605C54.6016 95.865 55.2439 92.0304 55.2439 88.8349C55.2439 85.0003 54.6016 81.8048 53.9592 78.6093C53.3167 77.3311 53.3167 75.4138 52.6743 74.1356C52.032 71.5792 50.7473 68.3837 49.4626 65.8273C48.8201 64.5491 48.1777 63.2709 46.8931 61.9927C46.2507 60.0754 44.9658 58.1581 43.6812 56.8799L57.1709 43.4588C58.4558 44.737 60.3828 46.0152 62.3101 47.2934C63.5947 44.737 64.8794 41.5415 65.5217 38.9851C63.5947 37.0678 61.6675 35.7896 60.3828 33.8723L57.1709 30.6768L30.8337 56.8799ZM107.276 56.8799C111.13 62.6318 116.269 67.7446 122.051 71.5792C123.335 72.2183 124.62 73.4965 125.905 74.1356C128.474 75.4138 131.044 76.692 134.255 77.3311C135.54 77.9702 137.467 77.9702 138.752 78.6093C140.679 79.2484 142.606 79.2484 145.176 79.2484L145.176 98.4214C143.249 98.4214 141.322 99.0605 138.752 99.0605C139.395 102.256 140.679 104.812 142.606 107.369C145.176 106.73 147.103 106.73 149.672 106.73L154.169 106.73L154.169 70.301L149.672 70.301C147.103 70.301 145.176 70.301 142.606 69.6619C141.322 69.6619 139.395 69.0228 138.11 68.3837C134.898 67.7446 132.328 66.4664 129.759 65.1882C128.474 64.5491 127.189 63.91 125.905 62.6318C122.051 60.0754 118.839 56.2408 115.627 52.4062C113.057 54.9626 109.845 55.6017 107.276 56.8799ZM75.7998 66.4664L75.7998 112.482L84.793 112.482L84.793 98.4214L91.8589 98.4214C100.852 98.4214 107.918 91.3913 107.918 82.4439C107.918 73.4965 100.852 66.4664 91.8589 66.4664L75.7998 66.4664ZM84.793 75.4138L91.8589 75.4138C95.7131 75.4138 98.925 78.6093 98.925 82.4439C98.925 86.2785 95.7131 89.474 91.8589 89.474L84.793 89.474L84.793 75.4138ZM29.5491 70.9401L25.0525 70.9401L25.0525 107.369L29.5491 107.369C32.1187 107.369 34.0457 107.369 36.6152 108.008C37.8999 108.008 39.8269 108.647 41.1118 109.286C44.3235 109.925 46.8931 111.203 49.4626 112.482C50.7473 113.121 52.032 113.76 53.3167 115.038C57.1709 117.594 60.3828 121.429 63.5947 125.264C66.1641 123.985 69.376 122.707 71.9456 121.429C68.0913 115.677 62.9524 110.564 57.1709 106.73C55.8862 106.091 54.6016 104.812 53.3167 104.173C50.7473 102.895 48.1777 101.617 44.9658 100.978C43.6812 100.339 41.7542 100.339 40.4692 99.6996C38.5422 99.0605 36.6152 99.0605 34.0457 99.0605L34.0457 79.8875C35.9727 79.8875 37.8999 79.2484 40.4692 79.2484C39.8269 76.0529 38.5422 73.4965 36.6152 70.9401C34.0457 70.9401 32.1187 70.9401 29.5491 70.9401ZM124.62 99.6996C125.262 100.978 125.262 102.895 125.905 104.173C126.547 106.73 127.832 109.925 129.116 112.482C129.759 113.76 130.401 115.038 131.686 116.316C132.971 118.233 134.255 119.512 135.54 121.429L122.051 134.85C120.123 133.572 118.839 132.294 116.911 131.016C115.627 133.572 114.342 136.767 113.7 139.324C115.627 140.602 117.554 141.88 118.839 143.797L122.051 146.993L147.745 121.429L144.533 118.233C142.606 116.316 141.322 115.038 140.037 113.121C139.395 111.842 138.11 110.564 137.467 109.286C136.183 106.73 134.898 103.534 134.255 100.978C133.613 99.6996 133.613 97.7823 132.971 96.5041C132.328 92.0304 132.328 86.9176 132.971 82.4439C129.759 81.8048 127.189 80.5266 124.62 79.2484C123.335 85.6394 123.335 92.6695 124.62 99.6996ZM107.276 121.429C106.634 122.707 105.349 123.985 104.706 125.264C103.422 127.82 102.137 130.376 101.495 133.572C100.852 134.85 100.852 136.767 100.21 138.046C99.5674 139.963 99.5674 141.88 99.5674 144.437L80.2964 144.437C80.2964 142.519 79.6541 140.602 79.6541 138.046C76.4421 138.685 73.8726 139.963 71.3032 141.88C71.9456 144.437 71.9456 146.354 71.9456 148.91L71.9456 153.384L108.561 153.384L108.561 148.91C108.561 146.354 108.561 144.437 109.203 141.88C109.203 140.602 109.845 138.685 110.488 137.406C111.13 134.211 112.415 131.655 113.7 129.098C114.342 127.82 114.984 126.542 116.269 125.264C118.839 121.429 122.693 118.233 126.547 115.038C125.262 112.482 123.978 109.286 122.693 106.73C116.269 110.564 111.13 115.677 107.276 121.429ZM34.0457 118.233L30.8337 121.429L56.5286 146.993L59.7405 143.797C61.6675 141.88 62.9524 140.602 64.8794 139.324C66.1641 138.685 67.449 137.406 68.7336 136.767C71.3032 135.489 73.8726 134.211 77.0845 133.572C78.3691 132.933 80.2964 132.933 81.5811 132.294C84.1506 131.655 86.0776 131.655 88.6472 131.655C91.2166 131.655 93.7861 131.655 95.7131 132.294C96.3557 129.098 97.6404 126.542 98.925 123.985C95.7131 123.346 91.8589 122.707 88.6472 122.707C84.793 122.707 81.5811 123.346 78.3691 123.985C77.0845 123.985 75.1575 124.624 73.8726 125.264C71.3032 125.903 68.0913 127.181 65.5217 128.459C64.2371 129.098 62.9524 129.737 61.6675 131.016C59.7405 132.294 58.4558 133.572 56.5286 134.85L43.6812 121.429C44.9658 120.151 46.2507 118.233 47.5354 116.316C44.3235 115.038 41.7542 113.76 38.5422 113.121C37.2576 115.038 35.9727 116.955 34.0457 118.233Z" fill="url(#paint_linear_1017_1497_0)" fill-opacity="1.000000" fill-rule="evenodd"/>
</svg>
