<svg width="36.000000" height="36.000000" viewBox="0 0 36 36" fill="none" xmlns="http://www.w3.org/2000/svg" xmlns:xlink="http://www.w3.org/1999/xlink">
	<desc>
			Created with Pixso.
	</desc>
	<defs/>
	<path id="back" d="M0 18C0 8.0589 8.05884 0 18 0C27.9412 0 36 8.0589 36 18C36 27.9411 27.9412 36 18 36C8.05884 36 0 27.9411 0 18Z" fill="#4C6C91" fill-opacity="1.000000" fill-rule="evenodd"/>
	<path id="Shape" d="M18.9414 23.907C18.9414 23.907 19.2881 23.8692 19.4656 23.6821C19.6279 23.5106 19.6223 23.1871 19.6223 23.1871C19.6223 23.1871 19.6008 21.6763 20.3154 21.4532C21.0198 21.2338 21.9241 22.9142 22.8838 23.5604C23.6086 24.049 24.1589 23.942 24.1589 23.942L26.7236 23.907C26.7236 23.907 28.0647 23.8259 27.429 22.7907C27.3762 22.7059 27.0579 22.0247 25.5225 20.6254C23.9138 19.1607 24.1299 19.3976 26.0662 16.8636C27.2456 15.3206 27.717 14.3785 27.5696 13.9756C27.4297 13.5903 26.562 13.6926 26.562 13.6926L23.6753 13.7101C23.6753 13.7101 23.4612 13.6816 23.3025 13.7747C23.1477 13.866 23.0471 14.0789 23.0471 14.0789C23.0471 14.0789 22.5908 15.2726 21.9812 16.2884C20.6958 18.4307 20.1821 18.544 19.9717 18.4113C19.4824 18.1006 19.6045 17.165 19.6045 16.5004C19.6045 14.4236 19.9255 13.558 18.98 13.334C18.6663 13.2594 18.4353 13.2106 17.6323 13.2023C16.6023 13.1921 15.7307 13.2059 15.2368 13.4429C14.9082 13.6005 14.6545 13.9526 14.8096 13.9729C15.0002 13.9977 15.4321 14.0872 15.6614 14.3932C15.957 14.7886 15.9468 15.6754 15.9468 15.6754C15.9468 15.6754 16.1167 18.12 15.5496 18.4233C15.1609 18.6316 14.6274 18.2067 13.4807 16.2626C12.8938 15.2671 12.4507 14.1664 12.4507 14.1664C12.4507 14.1664 12.3652 13.9609 12.2122 13.8503C12.0271 13.7166 11.7688 13.6751 11.7688 13.6751L9.02588 13.6926C9.02588 13.6926 8.61353 13.7037 8.4624 13.8798C8.32812 14.0356 8.45215 14.3591 8.45215 14.3591C8.45215 14.3591 10.5996 19.2916 13.032 21.7776C15.2622 24.0563 17.7939 23.907 17.7939 23.907L18.9414 23.907Z" fill="#FFFFFF" fill-opacity="1.000000" fill-rule="evenodd"/>
</svg>
